{"title":"See.Dad.Run.S01E14.HDTV.XviD-Tallyortoby.avi","uid":8276169,"size":171955590,"categoryP":"video","categoryS":"tv_shows","magnet":"?xt=urn:btih:a1eba0d6a46d5a0db03712434ea0b03b421e82f0&amp;dn=See.Dad.Run.S01E14.HDTV.XviD-Tallyortoby.avi&amp;tr=udp%3A%2F%2Ftracker.openbittorrent.com%3A80&amp;tr=udp%3A%2F%2Fopen.demonii.com%3A1337&amp;tr=udp%3A%2F%2Ftracker.coppersurfer.tk%3A6969&amp;tr=udp%3A%2F%2Fexodus.desync.com%3A6969","seeders":1,"leechers":0,"uploader":"Tallyortoby","files":1,"time":1363720692,"description":"Format                                   : AVI\nFormat/Info                              : Audio Video Interleave\nFile size                                : 164 MiB\nDuration                                 : 20mn 35s\nOverall bit rate                         : 1 113 Kbps\nMovie name                               : See.Dad.Run.S01E14.HDTV.XviD-Tallyortoby.mp4\nDirector                                 : created.with.SUPER(C)+Recorder.2013.55\nWriting application                      : SUPER(C)   \n\nVideo\nID                                       : 0\nFormat                                   : MPEG-4 Visual\nFormat profile                           : Advanced Simple@L5\nFormat settings, BVOP                    : No\nFormat settings, QPel                    : No\nFormat settings, GMC                     : No warppoints\nFormat settings, Matrix                  : Default (H.263)\nCodec ID                                 : XVID\nCodec ID/Hint                            : XviD\nDuration                                 : 20mn 35s\nBit rate                                 : 973 Kbps\nWidth                                    : 640 pixels\nHeight                                   : 360 pixels\nDisplay aspect ratio                     : 16:9\nFrame rate                               : 25.000 fps\nColor space                              : YUV\nChroma subsampling                       : 4:2:0\nBit depth                                : 8 bits\nScan type                                : Progressive\nCompression mode                         : Lossy\nBits/(Pixel*Frame)                       : 0.169\nStream size                              : 143 MiB (87%)\nWriting library                          : SUPER(C)   \n\nAudio\nID                                       : 1\nFormat                                   : MPEG Audio\nFormat version                           : Version 1\nFormat profile                           : Layer 3\nMode                                     : Joint stereo\nMode extension                           : MS Stereo\nCodec ID                                 : 55\nCodec ID/Hint                            : MP3\nDuration                                 : 20mn 35s\nBit rate mode                            : Constant\nBit rate                                 : 128 Kbps\nChannel(s)                               : 2 channels\nSampling rate                            : 48.0 KHz\nCompression mode                         : Lossy\nStream size                              : 18.9 MiB (11%)\nAlignment                                : Aligned on interleaves\nInterleave, duration                     : 24 ms (0.60 video frame)\n\n","torrent":{"xt":"urn:btih:a1eba0d6a46d5a0db03712434ea0b03b421e82f0","amp;dn":"See.Dad.Run.S01E14.HDTV.XviD-Tallyortoby.avi","amp;tr":["udp%3A%2F%2Ftracker.openbittorrent.com%3A80","udp%3A%2F%2Fopen.demonii.com%3A1337","udp%3A%2F%2Ftracker.coppersurfer.tk%3A6969","udp%3A%2F%2Fexodus.desync.com%3A6969"],"infoHash":"a1eba0d6a46d5a0db03712434ea0b03b421e82f0","infoHashBuffer":{"type":"Buffer","data":[161,235,160,214,164,109,90,13,176,55,18,67,78,160,176,59,66,30,130,240]},"announce":[],"urlList":[]}}